<?xml version="1.0" standalone="no"?>
<!DOCTYPE svg PUBLIC "-//W3C//DTD SVG 20010904//EN"
 "http://www.w3.org/TR/2001/REC-SVG-20010904/DTD/svg10.dtd">
<svg version="1.0" xmlns="http://www.w3.org/2000/svg"
 width="209.000000pt" height="209.000000pt" viewBox="0 0 209.000000 209.000000"
 preserveAspectRatio="xMidYMid meet">
<metadata>
Created by potrace 1.16, written by Peter Selinger 2001-2019
</metadata>
<g transform="translate(0.000000,209.000000) scale(0.100000,-0.100000)"
fill="#9b59bb" stroke="none">
<path d="M0 1927 l0 -164 188 -6 c112 -4 212 -13 250 -22 211 -51 315 -198
299 -422 -10 -138 -84 -246 -215 -316 l-62 -33 180 -297 c99 -164 184 -306
190 -317 10 -19 7 -20 -92 -20 l-103 0 -170 293 -170 292 -143 3 -142 3 0
-213 c0 -117 -3 -324 -7 -460 l-6 -248 1046 0 1047 0 0 236 0 236 -37 -32
c-99 -87 -275 -136 -453 -127 -188 10 -312 59 -421 168 -73 72 -137 187 -164
293 -39 155 -39 389 0 541 45 177 157 321 306 394 229 112 569 84 734 -60 l35
-31 0 236 0 236 -1045 0 -1045 0 0 -163z"/>
<path d="M1520 1609 c-159 -31 -276 -152 -327 -339 -23 -83 -25 -356 -4 -440
62 -245 209 -361 456 -362 197 0 329 76 401 232 14 30 30 63 35 72 5 10 9 131
9 269 l0 250 -34 74 c-45 98 -76 137 -147 184 -94 63 -251 87 -389 60z"/>
<path d="M10 1335 l0 -267 173 4 c172 3 173 3 240 36 57 28 72 41 97 85 35 62
46 138 31 215 -16 80 -45 117 -121 155 -64 32 -65 32 -242 36 l-178 3 0 -267z"/>
</g>
</svg>
