<?xml version="1.0" encoding="UTF-8" standalone="no"?>
<svg
        xmlns:dc="http://purl.org/dc/elements/1.1/"
        xmlns:cc="http://creativecommons.org/ns#"
        xmlns:rdf="http://www.w3.org/1999/02/22-rdf-syntax-ns#"
        xmlns="http://www.w3.org/2000/svg"
        xmlns:sodipodi="http://sodipodi.sourceforge.net/DTD/sodipodi-0.dtd"
        xmlns:inkscape="http://www.inkscape.org/namespaces/inkscape"
        width="200px"
        height="200px"
        viewBox="0 0 200 200"
        version="1.1"
        id="svg5106"
        sodipodi:docname="anphene.svg"
        inkscape:version="0.92.4 (f8dce91, 2019-08-02)">
  <metadata
     id="metadata5110">
    <rdf:RDF>
      <cc:Work
         rdf:about="">
        <dc:format>image/svg+xml</dc:format>
        <dc:type
           rdf:resource="http://purl.org/dc/dcmitype/StillImage" />
        <dc:title>Group 28 Copy 5</dc:title>
      </cc:Work>
    </rdf:RDF>
  </metadata>
  <sodipodi:namedview
     pagecolor="#ffffff"
     bordercolor="#666666"
     borderopacity="1"
     objecttolerance="10"
     gridtolerance="10"
     guidetolerance="10"
     inkscape:pageopacity="0"
     inkscape:pageshadow="2"
     inkscape:window-width="1920"
     inkscape:window-height="1011"
     id="namedview5108"
     showgrid="false"
     inkscape:zoom="1.18"
     inkscape:cx="-51.271186"
     inkscape:cy="100"
     inkscape:window-x="1360"
     inkscape:window-y="0"
     inkscape:window-maximized="1"
     inkscape:current-layer="svg5106" />
  <!-- Generator: Sketch 47.1 (45422) - http://www.bohemiancoding.com/sketch -->
  <title
     id="title5062">Group 28 Copy 5</title>
  <desc
     id="desc5064">Created with Sketch.</desc>
  <defs
     id="defs5092">
    <linearGradient
       x1="107.16039"
       y1="0.55117057"
       x2="186.13482"
       y2="65.422938"
       id="linearGradient-1"
       gradientTransform="matrix(-0.8622311,0,0,-1.1597819,200.14002,199.98422)"
       gradientUnits="userSpaceOnUse">
      <stop
         stop-color="#4285EB"
         offset="0%"
         id="stop5066" />
      <stop
         stop-color="#2EC7FF"
         offset="100%"
         id="stop5068" />
    </linearGradient>
    <linearGradient
       x1="120.08176"
       y1="0.55117059"
       x2="93.352142"
       y2="186.37035"
       id="linearGradient-2"
       gradientTransform="matrix(-0.8622311,0,0,-1.1597819,200.14002,199.98422)"
       gradientUnits="userSpaceOnUse"
       spreadMethod="pad">
      <stop
         stop-color="#29CDFF"
         offset="0%"
         id="stop5071" />
      <stop
         stop-color="#148EFF"
         offset="37.8600687%"
         id="stop5073" />
      <stop
         stop-color="#0A60FF"
         offset="100%"
         id="stop5075" />
    </linearGradient>
    <linearGradient
       x1="231.54271"
       y1="41.072541"
       x2="198.8471"
       y2="121.54357"
       id="linearGradient-3"
       gradientTransform="matrix(-0.79713518,0,0,-1.2544924,200.14002,199.98422)"
       gradientUnits="userSpaceOnUse">
      <stop
         stop-color="#FA816E"
         offset="0%"
         id="stop5078" />
      <stop
         stop-color="#F74A5C"
         offset="41.472606%"
         id="stop5080" />
      <stop
         stop-color="#F51D2C"
         offset="100%"
         id="stop5082" />
    </linearGradient>
    <linearGradient
       x1="109.03096"
       y1="60.048356"
       x2="91.249446"
       y2="131.1186"
       id="linearGradient-4"
       gradientTransform="matrix(1.0004114,0,0,0.99958875,-200.14002,-199.98422)"
       gradientUnits="userSpaceOnUse">
      <stop
         stop-color="#FA8E7D"
         offset="0%"
         id="stop5085" />
      <stop
         stop-color="#F74A5C"
         offset="51.2635191%"
         id="stop5087" />
      <stop
         stop-color="#F51D2C"
         offset="100%"
         id="stop5089" />
    </linearGradient>
  </defs>
  <path
     d="m 108.55193,195.80769 87.40812,-87.33624 c 4.69921,-4.69534 4.69921,-12.27911 0,-16.97446 L 108.55193,4.16075 c -4.6992,-4.69534 -12.28921,-4.69534 -16.98842,0 L 54.91453,40.77959 c -4.20848,4.20502 -4.20848,11.02271 0,15.22773 4.20849,4.20502 11.03178,4.20502 15.24026,0 l 27.7833,-27.76045 c 1.16963,-1.16866 2.94477,-1.16866 4.11439,0 l 69.80163,69.74423 c 1.16963,1.16866 1.16963,2.94234 0,4.11101 l -69.80163,69.74423 c -1.16962,1.16866 -2.94476,1.16866 -4.11439,0 l -27.7833,-27.76045 c -4.20848,-4.20502 -11.03177,-4.20502 -15.24026,0 -4.20848,4.20502 -4.20848,11.02271 0,15.22773 l 36.64494,36.61485 c 4.7185,4.59374 12.31129,4.55655 16.99246,-0.12078 z"
     id="Shape"
     style="fill:#70c1b3;fill-rule:nonzero;stroke:none;stroke-width:1;fill-opacity:1"
     inkscape:connector-curvature="0" />
  <path
     inkscape:connector-curvature="0"
     style="fill:#b2dbbf;fill-rule:nonzero;stroke:none;stroke-width:1;fill-opacity:0.94117647"
     id="path5098"
     d="m 46.45439,64.12964 c -4.20848,-4.20502 -11.03178,-4.20502 -15.24026,0 L 4.18004,91.14149 c -4.6992,4.69535 -4.6992,12.27912 -5.5e-4,16.97391 l 27.26975,27.1507 c 4.21845,4.20003 11.04391,4.19398 15.25489,-0.0135 4.20848,-4.20502 4.20848,-11.0227 0,-15.22772 l -18.41814,-18.403 c -1.16963,-1.16866 -1.16963,-2.94234 0,-4.11101 l 18.1684,-18.15346 c 4.20848,-4.20502 4.20848,-11.02271 0,-15.22773 z" />
  <ellipse
     id="Combined-Shape"
     cx="-99.620682"
     cy="-99.547539"
     rx="23.600193"
     ry="23.580786"
     style="fill:#fa8e7d;fill-rule:evenodd;stroke:none;stroke-width:1;fill-opacity:1"
     transform="scale(-1)" />
</svg>
